<svg width="512" height="512" xmlns="http://www.w3.org/2000/svg">

 <g>
  <title>background</title>
  <rect fill="none" id="canvas_background" height="602" width="802" y="-1" x="-1"/>
 </g>
 <g>
  <title>Layer 1</title>
  <g id="svg_1">
   <g id="svg_2">
    <path fill="#e6e7e9" id="svg_3" d="m485.743,85.333l-459.486,0c-14.442,0 -26.257,11.815 -26.257,26.256l0,288.821c0,14.44 11.815,26.257 26.257,26.257l459.487,0c14.44,0 26.257,-11.815 26.257,-26.257l0,-288.821c-0.001,-14.441 -11.816,-26.256 -26.258,-26.256zm-9.853,19.691l-204.786,153.602c-3.682,2.802 -9.334,4.555 -15.105,4.529c-5.77,0.026 -11.421,-1.727 -15.104,-4.529l-204.786,-153.602l439.781,0zm-109.39,163.737l111.59,137.847c0.112,0.138 0.249,0.243 0.368,0.368l-444.916,0c0.118,-0.131 0.256,-0.23 0.368,-0.368l111.59,-137.847c3.419,-4.227 2.771,-10.424 -1.464,-13.851c-4.227,-3.419 -10.424,-2.771 -13.844,1.457l-110.5,136.501l0,-275.536l209.394,157.046c7.871,5.862 17.447,8.442 26.912,8.468c9.452,-0.02 19.036,-2.6 26.912,-8.468l209.394,-157.046l0,275.534l-110.497,-136.499c-3.42,-4.227 -9.623,-4.877 -13.844,-1.457c-4.234,3.419 -4.884,9.624 -1.463,13.851z"/>
   </g>
  </g>
  <g id="svg_4"/>
  <g id="svg_5"/>
  <g id="svg_6"/>
  <g id="svg_7"/>
  <g id="svg_8"/>
  <g id="svg_9"/>
  <g id="svg_10"/>
  <g id="svg_11"/>
  <g id="svg_12"/>
  <g id="svg_13"/>
  <g id="svg_14"/>
  <g id="svg_15"/>
  <g id="svg_16"/>
  <g id="svg_17"/>
  <g id="svg_18"/>
 </g>
</svg>