<svg width="512" height="512" xmlns="http://www.w3.org/2000/svg">

 <g>
  <title>background</title>
  <rect fill="none" id="canvas_background" height="602" width="802" y="-1" x="-1"/>
 </g>
 <g>
  <title>Layer 1</title>
  <path fill="#e6e7e9" id="svg_1" d="m160.00781,423l-70,0l0,-226l70,0l0,226zm6.98438,-298.00391c0,-22.6289 -18.35938,-40.99609 -40.97656,-40.99609c-22.70313,0 -41.01563,18.36719 -41.01563,40.99609c0,22.63672 18.3125,41.00391 41.01563,41.00391c22.61718,0 40.97656,-18.36719 40.97656,-41.00391zm255.00781,173.66797c0,-60.66797 -12.81641,-105.66406 -83.6875,-105.66406c-34.05469,0 -56.91406,17.03125 -66.24609,34.74219l-0.06641,0l0,-30.74219l-68,0l0,226l68,0l0,-112.21094c0,-29.38672 7.48047,-57.85547 43.90625,-57.85547c35.92969,0 37.09375,33.60547 37.09375,59.72266l0,110.34375l69,0l0,-124.33594zm90,153.33594l0,-392c0,-33.08594 -26.91406,-60 -60,-60l-392,0c-33.08594,0 -60,26.91406 -60,60l0,392c0,33.08594 26.91406,60 60,60l392,0c33.08594,0 60,-26.91406 60,-60zm-60,-412c11.02734,0 20,8.97266 20,20l0,392c0,11.02734 -8.97266,20 -20,20l-392,0c-11.02734,0 -20,-8.97266 -20,-20l0,-392c0,-11.02734 8.97266,-20 20,-20l392,0zm0,0"/>
 </g>
</svg>